<svg width="40" height="40" viewBox="0 0 40 40" fill="none" xmlns="http://www.w3.org/2000/svg">
<path d="M28.1748 20.1187C28.1381 16.1707 31.5123 14.25 31.6666 14.1606C29.7556 11.4621 26.7937 11.0934 25.7529 11.064C23.2652 10.8104 20.8522 12.5057 19.585 12.5057C18.2925 12.5057 16.3411 11.0885 14.2379 11.1301C11.5315 11.1705 8.99955 12.6882 7.61093 15.045C4.74514 19.8504 6.88247 26.9122 9.6281 30.7964C11.0016 32.6988 12.6064 34.8228 14.7071 34.7481C16.7622 34.666 17.5299 33.4791 20.0099 33.4791C22.4672 33.4791 23.1881 34.7481 25.3305 34.7003C27.5361 34.666 28.9247 32.7894 30.2501 30.8699C31.8373 28.6896 32.4747 26.5422 32.5 26.432C32.4481 26.4149 28.2165 24.8506 28.1748 20.1187Z" fill="#0D0D0D"/>
<path d="M24.1278 8.50876C25.2331 7.1699 25.9894 5.34843 25.7794 3.5C24.1796 3.5686 22.1789 4.57182 21.0267 5.88127C20.0074 7.03516 19.0968 8.92646 19.3321 10.7051C21.1292 10.8349 22.9744 9.82679 24.1278 8.50876Z" fill="#0D0D0D"/>
</svg>
