<svg width="108" height="69" viewBox="0 0 108 69" fill="none" xmlns="http://www.w3.org/2000/svg">
<g clip-path="url(#clip0_1_39)">
<path d="M101.899 13.9223C102.659 17.8032 103.406 21.6789 104.24 25.9532C106.555 24.634 107.263 22.6102 107.084 20.68C106.547 14.9656 105.936 9.22945 104.771 3.62627C104.107 0.412999 101.377 -0.236854 98.9077 1.90293C94.7939 5.47231 90.8667 9.24377 86.8628 12.9397C86.6281 13.1516 86.2886 13.3985 86.2486 13.6561C86.1199 14.5093 86.1161 15.3734 86.0545 16.23C86.7874 16.2585 87.7065 16.5875 88.2332 16.2696C90.0029 15.2002 91.6499 13.9006 93.3371 12.6926C94.2251 12.0528 95.1039 11.417 96.7065 11.163C96.1829 12.7349 95.7161 14.3365 95.1094 15.8684C82.8132 47.1774 52.164 66.162 18.5243 63.2042C14.2223 62.8279 9.97002 61.9167 5.69486 61.2775C4.20147 61.058 2.69951 60.9186 1.19983 60.7345C1.04874 61.0627 0.893645 61.3817 0.742554 61.7098C1.41895 62.4071 1.96144 63.4468 2.77918 63.7438C5.62237 64.8024 8.51651 65.8279 11.4747 66.4759C41.4483 73.0036 73.3241 59.8134 90.8923 33.3903C94.2437 28.3535 96.6685 22.6962 99.4827 17.3052C100.068 16.1976 100.483 15.0008 100.971 13.848C101.296 13.8915 101.599 13.9115 101.899 13.9223Z" fill="#009688"/>
</g>
<defs>
<clipPath id="clip0_1_39">
<rect width="108" height="69" fill="white"/>
</clipPath>
</defs>
</svg>
