<svg width="40" height="40" viewBox="0 0 40 40" fill="none" xmlns="http://www.w3.org/2000/svg">
<path fill-rule="evenodd" clip-rule="evenodd" d="M6.9257 4.536L22.0031 20L6.9257 35.4641C6.85299 35.3883 6.78491 35.3078 6.72202 35.2228C6.25 34.5849 6.25 33.4889 6.25 31.2968V8.70332C6.25 6.51121 6.25 5.41515 6.72202 4.7773C6.78491 4.69231 6.85299 4.61177 6.9257 4.536ZM8.77949 3.75146L23.3125 18.6571L27.8983 13.9538L12.3394 5.32705C10.5347 4.32648 9.55384 3.7826 8.77949 3.75146ZM29.5981 14.8962L24.6219 20L29.5981 25.1039L32.7138 23.3763C34.6907 22.2803 35.6791 21.7322 36.0183 21.0207C36.3272 20.3726 36.3272 19.6275 36.0183 18.9794C35.6791 18.2679 34.6907 17.7198 32.7138 16.6238L29.5981 14.8962ZM27.8983 26.0463L23.3125 21.343L8.77949 36.2486C9.55383 36.2175 10.5347 35.6736 12.3393 34.6731L12.3394 34.673L27.8983 26.0463Z" fill="#0D0D0D"/>
</svg>
