<svg xmlns="http://www.w3.org/2000/svg" width="267.593" height="121.93" viewBox="0 0 267.593 121.93"><g transform="translate(-799.092 -10414.134)"><path d="M-24.69,3.482a1.29,1.29,0,0,0,1.013-.528.789.789,0,0,0,.211-.549.745.745,0,0,0-.063-.3.89.89,0,0,0-.369-.486,1.055,1.055,0,0,0-.581-.169,1.79,1.79,0,0,0-.443.084.5.5,0,0,1-.211.063q-.084,0-.211-.148a.657.657,0,0,1-.169-.232A6.623,6.623,0,0,1-25.745.59,9.744,9.744,0,0,1-26-1.395l-.042-4.18.021-.19.274-.021,1.077-.169a1.192,1.192,0,0,0,.654-.274.88.88,0,0,0,.338-.676.884.884,0,0,0-.211-.6,1.049,1.049,0,0,0-.57-.327.64.64,0,0,0-.19-.021,1.816,1.816,0,0,0-.338.042l-.475.063q-.306.042-.538.063V-7.9l.084-1.372.021-.549a.909.909,0,0,0-.3-.7.99.99,0,0,0-.7-.274.9.9,0,0,0-.317.042.892.892,0,0,0-.718.8q-.063.422-.106,1.351,0,.084-.063,1.1H-28.6a2.781,2.781,0,0,1-.38.021,2.781,2.781,0,0,0-.38.021.958.958,0,0,0-.665.3.911.911,0,0,0-.264.654.828.828,0,0,0,.243.591.983.983,0,0,0,.623.3,3.126,3.126,0,0,0,.443.021h.866v2.027A27.834,27.834,0,0,0-27.92.083a5.983,5.983,0,0,0,.486,1.794,3.147,3.147,0,0,0,.7.992,2.324,2.324,0,0,0,1.6.654A3.441,3.441,0,0,0-24.69,3.482Zm4.264.211a.992.992,0,0,0,.792-.359.981.981,0,0,0,.222-.844l-.042-.19-.127-2.322a.4.4,0,0,1,.021-.127.82.82,0,0,1,.042-.106q.021-.106.063-.243a1.8,1.8,0,0,0,.063-.327l.063-.549q.021-.169.053-.5t.074-.559a2.7,2.7,0,0,1,1.119-1.858.9.9,0,0,1,.443-.232,6.117,6.117,0,0,1,.866-.063,1.553,1.553,0,0,1,1.647,1.161l.063.3a9.541,9.541,0,0,1,.232,2.174q0,.38-.042,1.1-.084,1.393-.084,2.132a.977.977,0,0,0,.3.718.977.977,0,0,0,.718.3A.992.992,0,0,0-13.3,3.06a1.061,1.061,0,0,0,.369-.612A1.731,1.731,0,0,0-12.889,2l.042-.718q.042-.929.084-1.393.021-.274.021-.823A11.971,11.971,0,0,0-13.079-3.8a3.606,3.606,0,0,0-2.85-2.787,2.961,2.961,0,0,0-.866-.106,6.118,6.118,0,0,0-.866.063,3.29,3.29,0,0,0-1.773.739l-.253.211A.593.593,0,0,0-19.7-5.8a.225.225,0,0,1,.011-.116l.063-4.18a2.242,2.242,0,0,1,.021-.317,2.242,2.242,0,0,0,.021-.317,1.1,1.1,0,0,0-.306-.739.943.943,0,0,0-.707-.3,1.045,1.045,0,0,0-.633.2.923.923,0,0,0-.359.538,2.282,2.282,0,0,0-.106.633q-.084,2.871-.084,4.307,0,1.816.084,5.4l.148,3.019A4.892,4.892,0,0,0-21.418,3a.976.976,0,0,0,.38.507A1.051,1.051,0,0,0-20.425,3.693Zm13.87.042a3.79,3.79,0,0,0,2.248-.623A4.5,4.5,0,0,0-2.883,1.35l.042-.127a.888.888,0,0,0,.021-.211.886.886,0,0,0-.3-.676,1.073,1.073,0,0,0-.76-.274,1.087,1.087,0,0,0-.908.486L-5.2,1.2a1.217,1.217,0,0,1-.844.528,3.024,3.024,0,0,1-.591.063,2.769,2.769,0,0,1-1.752-.654A2.171,2.171,0,0,1-9.026.262,4.446,4.446,0,0,1-9.279-.909q.3,0,.887.042.718.042,1.056.042A7.994,7.994,0,0,0-6.091-.909,6.08,6.08,0,0,0-4-1.564,2.142,2.142,0,0,0-2.819-3.527a2.339,2.339,0,0,0-.718-1.626A5.156,5.156,0,0,0-5.479-6.461a4.182,4.182,0,0,0-1.414-.274,4.48,4.48,0,0,0-.507.042,6.328,6.328,0,0,0-1.414.359,3.729,3.729,0,0,0-2.364,2.47,7.144,7.144,0,0,0-.3,2.09,7.826,7.826,0,0,0,.4,2.491,4.18,4.18,0,0,0,1.71,2.2A4.978,4.978,0,0,0-6.556,3.735Zm-.823-6.5q-1.056-.042-1.6-.084l-.274-.021a3.293,3.293,0,0,1,.338-.971.491.491,0,0,1,.084-.127.331.331,0,0,0,.063-.084,2.032,2.032,0,0,1,.823-.528,2.936,2.936,0,0,1,1.056-.211,1.4,1.4,0,0,1,.443.063A2.916,2.916,0,0,1-5.1-3.844a.53.53,0,0,1,.127.211.468.468,0,0,1,.021.148.356.356,0,0,1-.211.3,3.111,3.111,0,0,1-1.267.359A7.342,7.342,0,0,1-7.379-2.767ZM10.185,3.714a4.379,4.379,0,0,0,1.33-.2,10.6,10.6,0,0,0,1.414-.581,3.612,3.612,0,0,0,1.626-1.647,5.8,5.8,0,0,0,.654-2.66A6.2,6.2,0,0,0,15-3a5.207,5.207,0,0,0-1.6-2.554A3.765,3.765,0,0,0,12-6.335a6.066,6.066,0,0,0-1.71-.253,6.118,6.118,0,0,0-.866.063q-.486.084-.676.106L8.707-6.5q-.042-1.119-.169-3.525a1.024,1.024,0,0,0-.348-.739,1.139,1.139,0,0,0-.792-.3,1.118,1.118,0,0,0-.718.253,1,1,0,0,0-.38.633,3.415,3.415,0,0,0-.042.559v.412l.232,3.927q.042,1.056.084,1.583l.042.844q.042.612.084,1.794.021,1.14.021,3.441a2.381,2.381,0,0,0,.042.528,1.016,1.016,0,0,0,.4.633,1.183,1.183,0,0,0,.718.232,1.149,1.149,0,0,0,.549-.148.591.591,0,0,1,.422-.063A7.338,7.338,0,0,0,10.185,3.714ZM10.8,1.5a2.145,2.145,0,0,1-.718.106A3.8,3.8,0,0,1,9,1.434V1.16L9.024.273q0-1.33-.169-4.032v-.106a.469.469,0,0,1,.074-.274.505.505,0,0,1,.264-.169,3.83,3.83,0,0,1,.76-.148,2.511,2.511,0,0,1,.38-.021,2.982,2.982,0,0,1,1.056.19,2.389,2.389,0,0,1,.528.338A2.833,2.833,0,0,1,12.8-2.366a4.423,4.423,0,0,1,.127,1.034A3.744,3.744,0,0,1,12.507.4a1.472,1.472,0,0,1-.739.7A8.563,8.563,0,0,1,10.8,1.5Zm6.9-8.951a1.219,1.219,0,0,0,.507-.127l.317-.148a1.143,1.143,0,0,0,.5-.433,1.146,1.146,0,0,0,.179-.623,1.163,1.163,0,0,0-.369-.866,1.19,1.19,0,0,0-.855-.359,1.555,1.555,0,0,0-1.045.391,1.219,1.219,0,0,0-.454.961,1.173,1.173,0,0,0,.348.844A1.17,1.17,0,0,0,17.7-7.453Zm.127,11.02a.956.956,0,0,0,.338.063,1.009,1.009,0,0,0,.475-.116,1.029,1.029,0,0,0,.369-.327.926.926,0,0,0,.19-.57.9.9,0,0,0-.232-.591.926.926,0,0,1-.232-.57V-1.859h-.042V-2.45q0-.929-.042-2.744a.741.741,0,0,0-.021-.211.884.884,0,0,0-.306-.57.885.885,0,0,0-.6-.232.944.944,0,0,0-.665.243.879.879,0,0,0-.285.623q-.021.3-.021.929v.95q0,.274.042.823l.021.8V1.1a5.547,5.547,0,0,0,.063.823,2.384,2.384,0,0,0,.4,1.161A1.377,1.377,0,0,0,17.827,3.566ZM23.21,7.873a2.613,2.613,0,0,0,.676.084,3.043,3.043,0,0,0,.739-.084,6.231,6.231,0,0,0,2.3-.887A3.582,3.582,0,0,0,28.34,5.192a7.471,7.471,0,0,0,.443-2.428q.021-.232.021-.654V.632h-.021q0-1.056-.042-3.124L28.72-4.055q0-.3-.042-.929l-.021-.486a1,1,0,0,0-.348-.76,1.069,1.069,0,0,0-.813-.232h-.042a.5.5,0,0,1-.137-.021q-.074-.021-.137-.042a2.65,2.65,0,0,0-.739-.253,4.732,4.732,0,0,0-.908-.106,4.2,4.2,0,0,0-2.7,1.034,6.215,6.215,0,0,0-2.217,3.441,5.273,5.273,0,0,0-.148,1.14,5.08,5.08,0,0,0,.084.76,3.543,3.543,0,0,0,2.09,2.66,4.549,4.549,0,0,0,1.71.359,4.493,4.493,0,0,0,1.942-.486l.443-.232a3.663,3.663,0,0,0,.042.507l.021.549a5.966,5.966,0,0,1-.253,1.478A1.706,1.706,0,0,1,25.68,5.4a4.289,4.289,0,0,1-1.71.549,1.105,1.105,0,0,1-.887-.264,1.308,1.308,0,0,1-.549-.749q0-.084-.127-.8a1,1,0,0,0-.633-.844,1.779,1.779,0,0,0-.3-.042.96.96,0,0,0-.707.285,1.062,1.062,0,0,0-.306.728,4.143,4.143,0,0,0,.127.887A3.3,3.3,0,0,0,23.21,7.873ZM24.772.379a2.082,2.082,0,0,1-.507.063,2.083,2.083,0,0,1-.971-.253,1.369,1.369,0,0,1-.507-.549,2.248,2.248,0,0,1-.253-1.013,2.33,2.33,0,0,1,.127-.739A4.632,4.632,0,0,1,23.949-4.1a1.59,1.59,0,0,1,.739-.507,2.554,2.554,0,0,1,.929-.211,1.578,1.578,0,0,1,1.056.422q0,1.858.063,3.631l-.222.179q-.116.095-.264.2Q26.1-.3,25.817-.1a3.727,3.727,0,0,1-.528.317A1.84,1.84,0,0,1,24.772.379Zm8.043,7.494a2.613,2.613,0,0,0,.676.084,3.043,3.043,0,0,0,.739-.084,6.23,6.23,0,0,0,2.3-.887,3.582,3.582,0,0,0,1.414-1.794,7.471,7.471,0,0,0,.443-2.428q.021-.232.021-.654V.632h-.021q0-1.056-.042-3.124l-.021-1.562q0-.3-.042-.929l-.021-.486a1,1,0,0,0-.348-.76,1.069,1.069,0,0,0-.813-.232h-.042a.5.5,0,0,1-.137-.021q-.074-.021-.137-.042a2.649,2.649,0,0,0-.739-.253,4.732,4.732,0,0,0-.908-.106,4.2,4.2,0,0,0-2.7,1.034,6.215,6.215,0,0,0-2.217,3.441,5.273,5.273,0,0,0-.148,1.14,5.08,5.08,0,0,0,.084.76,3.543,3.543,0,0,0,2.09,2.66,4.549,4.549,0,0,0,1.71.359A4.493,4.493,0,0,0,35.9,2.025l.443-.232a3.663,3.663,0,0,0,.042.507l.021.549a5.966,5.966,0,0,1-.253,1.478A1.706,1.706,0,0,1,35.285,5.4a4.289,4.289,0,0,1-1.71.549,1.105,1.105,0,0,1-.887-.264,1.308,1.308,0,0,1-.549-.749q0-.084-.127-.8a1,1,0,0,0-.633-.844,1.779,1.779,0,0,0-.3-.042.96.96,0,0,0-.707.285,1.062,1.062,0,0,0-.306.728,4.143,4.143,0,0,0,.127.887A3.3,3.3,0,0,0,32.815,7.873ZM34.378.379a2.082,2.082,0,0,1-.507.063A2.083,2.083,0,0,1,32.9.189a1.369,1.369,0,0,1-.507-.549,2.248,2.248,0,0,1-.253-1.013,2.33,2.33,0,0,1,.127-.739A4.632,4.632,0,0,1,33.554-4.1a1.59,1.59,0,0,1,.739-.507,2.554,2.554,0,0,1,.929-.211,1.578,1.578,0,0,1,1.056.422q0,1.858.063,3.631l-.222.179q-.116.095-.264.2-.148.084-.433.285a3.727,3.727,0,0,1-.528.317A1.84,1.84,0,0,1,34.378.379ZM44.6,3.735a3.79,3.79,0,0,0,2.248-.623A4.5,4.5,0,0,0,48.268,1.35l.042-.127a.888.888,0,0,0,.021-.211.886.886,0,0,0-.3-.676,1.073,1.073,0,0,0-.76-.274,1.087,1.087,0,0,0-.908.486l-.422.654a1.217,1.217,0,0,1-.844.528,3.024,3.024,0,0,1-.591.063,2.769,2.769,0,0,1-1.752-.654,2.171,2.171,0,0,1-.633-.876,4.446,4.446,0,0,1-.253-1.172q.3,0,.887.042.718.042,1.056.042a7.994,7.994,0,0,0,1.246-.084,6.08,6.08,0,0,0,2.09-.654,2.142,2.142,0,0,0,1.182-1.963,2.339,2.339,0,0,0-.718-1.626,5.156,5.156,0,0,0-1.942-1.309,4.182,4.182,0,0,0-1.414-.274,4.479,4.479,0,0,0-.507.042,6.328,6.328,0,0,0-1.414.359,3.729,3.729,0,0,0-2.364,2.47,7.144,7.144,0,0,0-.3,2.09,7.826,7.826,0,0,0,.4,2.491,4.18,4.18,0,0,0,1.71,2.2A4.978,4.978,0,0,0,44.6,3.735Zm-.823-6.5q-1.056-.042-1.6-.084l-.274-.021a3.293,3.293,0,0,1,.338-.971.491.491,0,0,1,.084-.127.331.331,0,0,0,.063-.084,2.032,2.032,0,0,1,.823-.528,2.936,2.936,0,0,1,1.056-.211,1.4,1.4,0,0,1,.443.063,2.916,2.916,0,0,1,1.351.887.53.53,0,0,1,.127.211.468.468,0,0,1,.021.148.356.356,0,0,1-.211.3,3.111,3.111,0,0,1-1.267.359A7.342,7.342,0,0,1,43.772-2.767Zm9.8,6.565a2.939,2.939,0,0,0,1.773-.507,2.626,2.626,0,0,0,1.2-2.217A2.511,2.511,0,0,0,56.522.7a3.818,3.818,0,0,0-2.385-3.314q-1.119-.443-1.288-.507a1.142,1.142,0,0,1-.718-.781,1.187,1.187,0,0,1-.042-.274.653.653,0,0,1,.285-.549,1.229,1.229,0,0,1,.749-.211,2.686,2.686,0,0,1,.718.106.531.531,0,0,1,.317.169.993.993,0,0,0,.654.274.8.8,0,0,0,.317-.063.856.856,0,0,0,.654-.739.64.64,0,0,0,.021-.19,1.031,1.031,0,0,0-.19-.549,1.48,1.48,0,0,0-.781-.57,4.794,4.794,0,0,0-1.71-.338,4.007,4.007,0,0,0-.7.063,2.95,2.95,0,0,0-1.647.918A2.4,2.4,0,0,0,50.147-4.2a2.7,2.7,0,0,0,.084.7,3.052,3.052,0,0,0,1.837,2.111l1.33.528a1.625,1.625,0,0,1,.876.76A2.2,2.2,0,0,1,54.58.97a.956.956,0,0,1-.2.612.782.782,0,0,1-.538.3,2.323,2.323,0,0,1-.359.021,2.613,2.613,0,0,1-.676-.084,1.114,1.114,0,0,1-.581-.391A.992.992,0,0,1,52,.8a1.068,1.068,0,0,0-.264-.739.877.877,0,0,0-.686-.3.942.942,0,0,0-.475.127,1.131,1.131,0,0,0-.369.338,1.121,1.121,0,0,0-.19.654,3.038,3.038,0,0,0,.866,1.921,2.552,2.552,0,0,0,1.14.739A4.369,4.369,0,0,0,53.567,3.8Zm8.571-.317a1.29,1.29,0,0,0,1.013-.528.789.789,0,0,0,.211-.549.745.745,0,0,0-.063-.3.89.89,0,0,0-.369-.486,1.055,1.055,0,0,0-.581-.169,1.79,1.79,0,0,0-.443.084.5.5,0,0,1-.211.063q-.084,0-.211-.148a.657.657,0,0,1-.169-.232A6.623,6.623,0,0,1,61.082.59a9.744,9.744,0,0,1-.253-1.984l-.042-4.18.021-.19.274-.021,1.077-.169a1.192,1.192,0,0,0,.654-.274.88.88,0,0,0,.338-.676.884.884,0,0,0-.211-.6,1.049,1.049,0,0,0-.57-.327.64.64,0,0,0-.19-.021,1.816,1.816,0,0,0-.338.042l-.475.063q-.306.042-.538.063V-7.9l.084-1.372.021-.549a.909.909,0,0,0-.3-.7.99.99,0,0,0-.7-.274.9.9,0,0,0-.317.042.892.892,0,0,0-.718.8q-.063.422-.106,1.351,0,.084-.063,1.1h-.507a2.781,2.781,0,0,1-.38.021,2.781,2.781,0,0,0-.38.021.958.958,0,0,0-.665.3.911.911,0,0,0-.264.654.828.828,0,0,0,.243.591.983.983,0,0,0,.623.3,3.126,3.126,0,0,0,.443.021h.866v2.027a27.834,27.834,0,0,0,.19,3.652,5.983,5.983,0,0,0,.486,1.794,3.147,3.147,0,0,0,.7.992,2.324,2.324,0,0,0,1.6.654A3.441,3.441,0,0,0,62.138,3.482ZM-58.414,24.592a1.29,1.29,0,0,0,1.013-.528.789.789,0,0,0,.211-.549.745.745,0,0,0-.063-.3.89.89,0,0,0-.369-.486,1.055,1.055,0,0,0-.581-.169,1.79,1.79,0,0,0-.443.084.5.5,0,0,1-.211.063q-.084,0-.211-.148a.657.657,0,0,1-.169-.232,6.622,6.622,0,0,1-.232-.633,9.744,9.744,0,0,1-.253-1.984l-.042-4.18.021-.19.274-.021,1.077-.169a1.192,1.192,0,0,0,.654-.274.88.88,0,0,0,.338-.676.884.884,0,0,0-.211-.6,1.049,1.049,0,0,0-.57-.327.64.64,0,0,0-.19-.021,1.816,1.816,0,0,0-.338.042l-.475.063q-.306.042-.538.063v-.211l.084-1.372.021-.549a.909.909,0,0,0-.3-.7.99.99,0,0,0-.7-.274.9.9,0,0,0-.317.042.892.892,0,0,0-.718.8q-.063.422-.106,1.351,0,.084-.063,1.1h-.507a2.781,2.781,0,0,1-.38.021,2.781,2.781,0,0,0-.38.021.958.958,0,0,0-.665.3.911.911,0,0,0-.264.654.827.827,0,0,0,.243.591.983.983,0,0,0,.623.3,3.126,3.126,0,0,0,.443.021h.866v2.027a27.832,27.832,0,0,0,.19,3.652,5.983,5.983,0,0,0,.486,1.794,3.147,3.147,0,0,0,.7.992,2.324,2.324,0,0,0,1.6.654A3.44,3.44,0,0,0-58.414,24.592Zm6.565.253a3.79,3.79,0,0,0,2.248-.623,4.5,4.5,0,0,0,1.425-1.763l.042-.127a.888.888,0,0,0,.021-.211.886.886,0,0,0-.3-.676,1.073,1.073,0,0,0-.76-.274,1.087,1.087,0,0,0-.908.486l-.422.654a1.217,1.217,0,0,1-.844.528,3.024,3.024,0,0,1-.591.063,2.769,2.769,0,0,1-1.752-.654,2.171,2.171,0,0,1-.633-.876,4.446,4.446,0,0,1-.253-1.172q.3,0,.887.042.718.042,1.056.042a7.994,7.994,0,0,0,1.246-.084,6.08,6.08,0,0,0,2.09-.654,2.142,2.142,0,0,0,1.182-1.963,2.339,2.339,0,0,0-.718-1.626,5.156,5.156,0,0,0-1.942-1.309,4.182,4.182,0,0,0-1.414-.274,4.48,4.48,0,0,0-.507.042,6.328,6.328,0,0,0-1.414.359,3.729,3.729,0,0,0-2.364,2.47,7.144,7.144,0,0,0-.3,2.09,7.826,7.826,0,0,0,.4,2.491,4.18,4.18,0,0,0,1.71,2.2A4.978,4.978,0,0,0-51.848,24.846Zm-.823-6.5q-1.056-.042-1.6-.084l-.274-.021a3.293,3.293,0,0,1,.338-.971.491.491,0,0,1,.084-.127.331.331,0,0,0,.063-.084,2.032,2.032,0,0,1,.823-.528,2.936,2.936,0,0,1,1.056-.211,1.4,1.4,0,0,1,.443.063,2.916,2.916,0,0,1,1.351.887.53.53,0,0,1,.127.211.468.468,0,0,1,.021.148.356.356,0,0,1-.211.3,3.111,3.111,0,0,1-1.267.359A7.342,7.342,0,0,1-52.672,18.344Zm18.514,6.375a.959.959,0,0,0,.676-.253,1.021,1.021,0,0,0,.317-.676l.148-2.069q.042-.8.042-1.2a12.15,12.15,0,0,0-.359-3A5.028,5.028,0,0,0-34.6,15.177a2.451,2.451,0,0,0-1.224-.633,5.006,5.006,0,0,0-.781-.063,2.961,2.961,0,0,0-2.407,1.14l-.211.253-.084-.127a2.3,2.3,0,0,0-.9-.95,2.423,2.423,0,0,0-1.214-.317,2.29,2.29,0,0,0-1.414.443q-.084.063-.528.443l-.4.338-.169.211-.042-.042q0-.106-.011-.264a2.9,2.9,0,0,0-.053-.369.86.86,0,0,0-.348-.549,1.055,1.055,0,0,0-.644-.211.93.93,0,0,0-.517.158.9.9,0,0,0-.348.412A1.52,1.52,0,0,0-46,15.6a7.805,7.805,0,0,0,.021.95l.084.971q.042.359.084.992l.232,3.948q0,.148.021.517t.063.665a.883.883,0,0,0,.317.591.952.952,0,0,0,.633.232,1.009,1.009,0,0,0,.654-.222.928.928,0,0,0,.338-.581,1.845,1.845,0,0,0,.042-.464,21.039,21.039,0,0,1,.127-2.66,12.7,12.7,0,0,1,.654-2.808,2.567,2.567,0,0,1,1.077-1.182.562.562,0,0,1,.253-.063.392.392,0,0,1,.359.253,3.2,3.2,0,0,1,.19.591,14.327,14.327,0,0,1,.422,3.019q.021.8.021,2.428a2.251,2.251,0,0,0,.042.507.947.947,0,0,0,.327.581,1.012,1.012,0,0,0,.6.243,1.055,1.055,0,0,0,.644-.211.959.959,0,0,0,.369-.57,1.878,1.878,0,0,0,.042-.359l-.021-2.259a13.426,13.426,0,0,1,.106-1.816,3.946,3.946,0,0,1,.781-1.963,1.243,1.243,0,0,1,1.013-.464.8.8,0,0,1,.612.274,2.5,2.5,0,0,1,.528.971,8.932,8.932,0,0,1,.38,2.765q0,.4-.042,1.246l-.127,1.752-.021.169a1.065,1.065,0,0,0,.3.771A.96.96,0,0,0-34.158,24.719ZM-29.746,29a.958.958,0,0,0,.591-.19.906.906,0,0,0,.338-.507,3.506,3.506,0,0,0,.063-.781l-.063-3.23V23.98l1.2.169a5.022,5.022,0,0,0,.76.042,5.61,5.61,0,0,0,1.647-.232A4.239,4.239,0,0,0-22.99,22.4a4.218,4.218,0,0,0,.844-2.575,7.217,7.217,0,0,0-.443-2.322,4.25,4.25,0,0,0-2.491-2.6,4.377,4.377,0,0,0-1.731-.38,3.962,3.962,0,0,0-2.28.739q0,.021-.011.021h-.074l-.063-.084a.92.92,0,0,0-.718-.338,1.055,1.055,0,0,0-.728.253,1.021,1.021,0,0,0-.327.7,6.866,6.866,0,0,0-.063.929l.127,3.589.063,1.541q.021.528.063,1.3t.063,1.784l.021.718q.042,1.056.042,1.562l-.021.887a.822.822,0,0,0,.285.623A.974.974,0,0,0-29.746,29Zm3.061-6.734a7.869,7.869,0,0,1-1.583-.19l-.422-.063A.31.31,0,0,1-28.806,22q-.053-.021-.1-.042l-.084-1.33q-.042-.633-.084-1.9V17.647a2.224,2.224,0,0,1,.929-.866,2.748,2.748,0,0,1,1.309-.338,2.323,2.323,0,0,1,.359.021,2.356,2.356,0,0,1,1.858,1.288,4.161,4.161,0,0,1,.507,1.984,4.451,4.451,0,0,1-.021.507,2,2,0,0,1-.549,1.182A2.7,2.7,0,0,1-26.685,22.27Zm7.2,2.428a1.023,1.023,0,0,0,.686-.243.906.906,0,0,0,.327-.6v-.169a2.323,2.323,0,0,0-.021-.359q0-.633-.042-1.984-.042-3.758-.084-5.594l-.084-4.665a4.46,4.46,0,0,1,.042-.486l.021-.169a.96.96,0,0,0-.306-.718,1.065,1.065,0,0,0-.771-.3,1.168,1.168,0,0,0-.581.148,1.035,1.035,0,0,0-.412.422,2.7,2.7,0,0,0-.148.486q-.021.338-.021,1.056,0,1.246.084,3.694,0,.591.042,1.773h.042v5.067q0,.422.042,1.267a2.053,2.053,0,0,0,.169.8,1.16,1.16,0,0,0,.443.422A1.187,1.187,0,0,0-19.486,24.7Zm10.851.232A.952.952,0,0,0-8,24.7a1.076,1.076,0,0,0,.359-.591,3.411,3.411,0,0,0,.021-.443l-.021-1.5q-.042-1.984-.042-3.019l.021-2.3a2.682,2.682,0,0,0-.021-.306.951.951,0,0,1,0-.285,1.14,1.14,0,0,0-.422-.95,3.113,3.113,0,0,0-.929-.549,5.6,5.6,0,0,0-1.457-.317,5.07,5.07,0,0,0-.528-.021,5.488,5.488,0,0,0-3.927,1.626,6.108,6.108,0,0,0-1.942,4.56,7.189,7.189,0,0,0,.063.929,3.466,3.466,0,0,0,1.161,2.238,3.341,3.341,0,0,0,2.259.866,3.468,3.468,0,0,0,1.816-.507,7.728,7.728,0,0,0,1.288-.992,2.71,2.71,0,0,1,.264-.232,2.709,2.709,0,0,0,.264-.232l.042.971q0,.084.011.211a1.889,1.889,0,0,0,.053.3,1,1,0,0,0,.369.559A1.052,1.052,0,0,0-8.635,24.93ZM-13.406,22.5a1.327,1.327,0,0,1-.781-.253,1.142,1.142,0,0,1-.464-.676,3.755,3.755,0,0,1-.127-.95,4.536,4.536,0,0,1,.042-.528,4.336,4.336,0,0,1,.8-2.027,3.831,3.831,0,0,1,2.618-1.541,1.593,1.593,0,0,1,.3-.021,4.735,4.735,0,0,1,1.14.19l-.169,1.013A12.134,12.134,0,0,1-10.6,19.8a4.936,4.936,0,0,1-1.626,2.217,3.742,3.742,0,0,1-.581.359A1.374,1.374,0,0,1-13.406,22.5Zm12.223,2.09A1.29,1.29,0,0,0-.17,24.065a.789.789,0,0,0,.211-.549.745.745,0,0,0-.063-.3.89.89,0,0,0-.369-.486,1.055,1.055,0,0,0-.581-.169,1.79,1.79,0,0,0-.443.084.5.5,0,0,1-.211.063q-.084,0-.211-.148a.657.657,0,0,1-.169-.232,6.623,6.623,0,0,1-.232-.633,9.744,9.744,0,0,1-.253-1.984l-.042-4.18.021-.19.274-.021,1.077-.169a1.192,1.192,0,0,0,.654-.274.88.88,0,0,0,.338-.676.884.884,0,0,0-.211-.6,1.049,1.049,0,0,0-.57-.327.64.64,0,0,0-.19-.021,1.816,1.816,0,0,0-.338.042l-.475.063q-.306.042-.538.063v-.211l.084-1.372.021-.549a.909.909,0,0,0-.3-.7.99.99,0,0,0-.7-.274.9.9,0,0,0-.317.042.892.892,0,0,0-.718.8q-.063.422-.106,1.351,0,.084-.063,1.1h-.507a2.781,2.781,0,0,1-.38.021,2.781,2.781,0,0,0-.38.021.958.958,0,0,0-.665.3.911.911,0,0,0-.264.654.827.827,0,0,0,.243.591.983.983,0,0,0,.623.3,3.126,3.126,0,0,0,.443.021H-4.6v2.027a27.834,27.834,0,0,0,.19,3.652,5.983,5.983,0,0,0,.486,1.794,3.147,3.147,0,0,0,.7.992,2.324,2.324,0,0,0,1.6.654A3.44,3.44,0,0,0-1.183,24.592Zm6.565.253a3.79,3.79,0,0,0,2.248-.623A4.5,4.5,0,0,0,9.055,22.46l.042-.127a.947.947,0,0,0-.274-.887,1.073,1.073,0,0,0-.76-.274,1.087,1.087,0,0,0-.908.486l-.422.654a1.217,1.217,0,0,1-.844.528A3.024,3.024,0,0,1,5.3,22.9a2.769,2.769,0,0,1-1.752-.654,2.171,2.171,0,0,1-.633-.876A4.446,4.446,0,0,1,2.659,20.2q.3,0,.887.042.718.042,1.056.042A7.994,7.994,0,0,0,5.847,20.2a6.08,6.08,0,0,0,2.09-.654,2.142,2.142,0,0,0,1.182-1.963A2.339,2.339,0,0,0,8.4,15.958a5.156,5.156,0,0,0-1.942-1.309,4.182,4.182,0,0,0-1.414-.274,4.48,4.48,0,0,0-.507.042,6.328,6.328,0,0,0-1.414.359,3.729,3.729,0,0,0-2.364,2.47,7.144,7.144,0,0,0-.3,2.09,7.826,7.826,0,0,0,.4,2.491,4.18,4.18,0,0,0,1.71,2.2A4.978,4.978,0,0,0,5.382,24.846Zm-.823-6.5q-1.056-.042-1.6-.084l-.274-.021a3.293,3.293,0,0,1,.338-.971A.491.491,0,0,1,3.1,17.14a.331.331,0,0,0,.063-.084,2.032,2.032,0,0,1,.823-.528,2.936,2.936,0,0,1,1.056-.211,1.4,1.4,0,0,1,.443.063,2.916,2.916,0,0,1,1.351.887.53.53,0,0,1,.127.211.468.468,0,0,1,.021.148.356.356,0,0,1-.211.3,3.111,3.111,0,0,1-1.267.359A7.342,7.342,0,0,1,4.559,18.344ZM22.63,24.719A3.216,3.216,0,0,0,25.8,22.9a1.149,1.149,0,0,0,.106-.422.938.938,0,0,0-.169-.528,1.177,1.177,0,0,0-.464-.4,1.3,1.3,0,0,0-.549-.127,1.277,1.277,0,0,0-.559.127,1.132,1.132,0,0,0-.433.359,1.462,1.462,0,0,0-.137.2,1.462,1.462,0,0,1-.137.2.7.7,0,0,1-.338.232,1.758,1.758,0,0,1-.464.063,1.351,1.351,0,0,1-.464-.084,1.926,1.926,0,0,1-1.372-1.288,6.43,6.43,0,0,1-.232-1.668,5.586,5.586,0,0,1,.084-1.034,6.813,6.813,0,0,1,.633-1.9.959.959,0,0,1,.844-.507,2.534,2.534,0,0,1,.359.042,3.362,3.362,0,0,1,.7.232,1.144,1.144,0,0,1,.781.739,1.559,1.559,0,0,0,.169.274,1.231,1.231,0,0,0,.887.4,1.316,1.316,0,0,0,.7-.179.994.994,0,0,0,.422-.517.713.713,0,0,0,.084-.359.85.85,0,0,0-.063-.338,2.489,2.489,0,0,0-.887-1.309,5.129,5.129,0,0,0-3.1-1.077,3.2,3.2,0,0,0-2.871,1.457l-.338.612a8.391,8.391,0,0,0-.781,3.378A9.434,9.434,0,0,0,18.6,22a3.294,3.294,0,0,0,.866,1.362,4.87,4.87,0,0,0,1.478.992A4.184,4.184,0,0,0,22.63,24.719Zm9.542.084a5.355,5.355,0,0,0,2.449-.633,4.458,4.458,0,0,0,2.3-3.525,5.416,5.416,0,0,0,.063-.8A4.851,4.851,0,0,0,35.3,16.169a.357.357,0,0,1-.148-.148,1.041,1.041,0,0,0-.253-.412q-.19-.2-.253-.264a2.923,2.923,0,0,0-2.153-.866A3.929,3.929,0,0,0,29.3,15.937a7.117,7.117,0,0,0-1.393,2.977,8.35,8.35,0,0,0-.19,1.583,3.659,3.659,0,0,0,.042.654A3.775,3.775,0,0,0,29,23.558a5.18,5.18,0,0,0,1.689.992A4.532,4.532,0,0,0,32.171,24.8Zm.021-2.027a2.8,2.8,0,0,1-1.858-.718,1.622,1.622,0,0,1-.591-1.288,5.17,5.17,0,0,1,1.161-3.61,2.162,2.162,0,0,1,1.351-.7H32.4a.235.235,0,0,0,.106.021l.063.148a1.024,1.024,0,0,0,.7.612.771.771,0,0,1,.3.106,3.1,3.1,0,0,1,1.414,2.7,2.6,2.6,0,0,1-.8,1.942A2.733,2.733,0,0,1,32.193,22.777ZM39.434,24.7a1.023,1.023,0,0,0,.686-.243.906.906,0,0,0,.327-.6v-.169a2.323,2.323,0,0,0-.021-.359q0-.633-.042-1.984-.042-3.758-.084-5.594l-.084-4.665a4.461,4.461,0,0,1,.042-.486l.021-.169a.96.96,0,0,0-.306-.718,1.065,1.065,0,0,0-.771-.3,1.168,1.168,0,0,0-.581.148,1.035,1.035,0,0,0-.412.422,2.7,2.7,0,0,0-.148.486q-.021.338-.021,1.056,0,1.246.084,3.694,0,.591.042,1.773h.042v5.067q0,.422.042,1.267a2.053,2.053,0,0,0,.169.8,1.16,1.16,0,0,0,.443.422A1.187,1.187,0,0,0,39.434,24.7Zm4.307,0a1.023,1.023,0,0,0,.686-.243.906.906,0,0,0,.327-.6v-.169a2.323,2.323,0,0,0-.021-.359q0-.633-.042-1.984-.042-3.758-.084-5.594l-.084-4.665a4.46,4.46,0,0,1,.042-.486l.021-.169a.96.96,0,0,0-.306-.718,1.065,1.065,0,0,0-.771-.3,1.168,1.168,0,0,0-.581.148,1.035,1.035,0,0,0-.412.422,2.7,2.7,0,0,0-.148.486q-.021.338-.021,1.056,0,1.246.084,3.694,0,.591.042,1.773h.042v5.067q0,.422.042,1.267a2.053,2.053,0,0,0,.169.8,1.16,1.16,0,0,0,.443.422A1.187,1.187,0,0,0,43.74,24.7Zm7.2.148a3.79,3.79,0,0,0,2.248-.623,4.5,4.5,0,0,0,1.425-1.763l.042-.127a.947.947,0,0,0-.274-.887,1.073,1.073,0,0,0-.76-.274,1.087,1.087,0,0,0-.908.486l-.422.654a1.217,1.217,0,0,1-.844.528,3.024,3.024,0,0,1-.591.063,2.769,2.769,0,0,1-1.752-.654,2.171,2.171,0,0,1-.633-.876,4.446,4.446,0,0,1-.253-1.172q.3,0,.887.042.718.042,1.056.042A7.994,7.994,0,0,0,51.4,20.2a6.08,6.08,0,0,0,2.09-.654,2.142,2.142,0,0,0,1.182-1.963,2.339,2.339,0,0,0-.718-1.626,5.156,5.156,0,0,0-1.942-1.309,4.182,4.182,0,0,0-1.414-.274,4.48,4.48,0,0,0-.507.042,6.328,6.328,0,0,0-1.414.359,3.729,3.729,0,0,0-2.364,2.47,7.144,7.144,0,0,0-.3,2.09,7.826,7.826,0,0,0,.4,2.491,4.18,4.18,0,0,0,1.71,2.2A4.978,4.978,0,0,0,50.939,24.846Zm-.823-6.5q-1.056-.042-1.6-.084l-.274-.021a3.293,3.293,0,0,1,.338-.971.491.491,0,0,1,.084-.127.331.331,0,0,0,.063-.084,2.032,2.032,0,0,1,.823-.528,2.936,2.936,0,0,1,1.056-.211,1.4,1.4,0,0,1,.443.063,2.916,2.916,0,0,1,1.351.887.53.53,0,0,1,.127.211.468.468,0,0,1,.021.148.356.356,0,0,1-.211.3,3.111,3.111,0,0,1-1.267.359A7.342,7.342,0,0,1,50.115,18.344ZM60.8,24.719A3.216,3.216,0,0,0,63.964,22.9a1.149,1.149,0,0,0,.106-.422.938.938,0,0,0-.169-.528,1.177,1.177,0,0,0-.464-.4,1.3,1.3,0,0,0-.549-.127,1.277,1.277,0,0,0-.559.127,1.132,1.132,0,0,0-.433.359,1.462,1.462,0,0,0-.137.2,1.462,1.462,0,0,1-.137.2.7.7,0,0,1-.338.232,1.758,1.758,0,0,1-.464.063,1.351,1.351,0,0,1-.464-.084,1.926,1.926,0,0,1-1.372-1.288,6.429,6.429,0,0,1-.232-1.668,5.586,5.586,0,0,1,.084-1.034,6.814,6.814,0,0,1,.633-1.9.959.959,0,0,1,.844-.507,2.534,2.534,0,0,1,.359.042,3.362,3.362,0,0,1,.7.232,1.144,1.144,0,0,1,.781.739,1.559,1.559,0,0,0,.169.274,1.231,1.231,0,0,0,.887.4,1.316,1.316,0,0,0,.7-.179.994.994,0,0,0,.422-.517.713.713,0,0,0,.084-.359.85.85,0,0,0-.063-.338,2.489,2.489,0,0,0-.887-1.309,5.129,5.129,0,0,0-3.1-1.077,3.2,3.2,0,0,0-2.871,1.457l-.338.612a8.391,8.391,0,0,0-.781,3.378,9.434,9.434,0,0,0,.4,2.512,3.293,3.293,0,0,0,.866,1.362,4.87,4.87,0,0,0,1.478.992A4.184,4.184,0,0,0,60.8,24.719Zm10.049-.127a1.29,1.29,0,0,0,1.013-.528.789.789,0,0,0,.211-.549.745.745,0,0,0-.063-.3.89.89,0,0,0-.369-.486,1.055,1.055,0,0,0-.581-.169,1.79,1.79,0,0,0-.443.084.5.5,0,0,1-.211.063q-.084,0-.211-.148a.658.658,0,0,1-.169-.232,6.622,6.622,0,0,1-.232-.633,9.743,9.743,0,0,1-.253-1.984l-.042-4.18.021-.19.274-.021,1.077-.169a1.192,1.192,0,0,0,.654-.274.894.894,0,0,0,.127-1.277,1.049,1.049,0,0,0-.57-.327.64.64,0,0,0-.19-.021,1.816,1.816,0,0,0-.338.042l-.475.063q-.306.042-.538.063v-.211l.084-1.372.021-.549a.909.909,0,0,0-.3-.7.99.99,0,0,0-.7-.274,1.026,1.026,0,0,0-1.034.844q-.063.422-.106,1.351,0,.084-.063,1.1H66.94a2.781,2.781,0,0,1-.38.021,2.781,2.781,0,0,0-.38.021.958.958,0,0,0-.665.3.911.911,0,0,0-.264.654.827.827,0,0,0,.243.591.983.983,0,0,0,.623.3,3.126,3.126,0,0,0,.443.021h.866v2.027a27.834,27.834,0,0,0,.19,3.652,5.983,5.983,0,0,0,.486,1.794,3.147,3.147,0,0,0,.7.992,2.324,2.324,0,0,0,1.6.654A3.44,3.44,0,0,0,70.846,24.592Zm3.293-10.935a1.219,1.219,0,0,0,.507-.127l.317-.148a1.156,1.156,0,0,0,.676-1.056,1.163,1.163,0,0,0-.369-.866,1.19,1.19,0,0,0-.855-.359,1.555,1.555,0,0,0-1.045.391,1.219,1.219,0,0,0-.454.961,1.207,1.207,0,0,0,1.224,1.2Zm.127,11.02a.956.956,0,0,0,.338.063,1.009,1.009,0,0,0,.475-.116,1.029,1.029,0,0,0,.369-.327.926.926,0,0,0,.19-.57.9.9,0,0,0-.232-.591.926.926,0,0,1-.232-.57V19.251h-.042V18.66q0-.929-.042-2.744a.741.741,0,0,0-.021-.211.93.93,0,0,0-.908-.8.944.944,0,0,0-.665.243.879.879,0,0,0-.285.623q-.021.3-.021.929v.95q0,.274.042.823l.021.8v2.934a5.547,5.547,0,0,0,.063.823,2.384,2.384,0,0,0,.4,1.161A1.377,1.377,0,0,0,74.266,24.677Zm7.3.127a5.355,5.355,0,0,0,2.449-.633,4.458,4.458,0,0,0,2.3-3.525,5.417,5.417,0,0,0,.063-.8,4.851,4.851,0,0,0-1.689-3.673.357.357,0,0,1-.148-.148,1.041,1.041,0,0,0-.253-.412q-.19-.2-.253-.264a2.923,2.923,0,0,0-2.153-.866A3.929,3.929,0,0,0,78.7,15.937a7.117,7.117,0,0,0-1.393,2.977,8.35,8.35,0,0,0-.19,1.583,3.659,3.659,0,0,0,.042.654A3.775,3.775,0,0,0,78.4,23.558a5.18,5.18,0,0,0,1.689.992A4.532,4.532,0,0,0,81.57,24.8Zm.021-2.027a2.8,2.8,0,0,1-1.858-.718,1.622,1.622,0,0,1-.591-1.288,5.17,5.17,0,0,1,1.161-3.61,2.162,2.162,0,0,1,1.351-.7H81.8a.235.235,0,0,0,.106.021l.063.148a1.024,1.024,0,0,0,.7.612.771.771,0,0,1,.3.106,3.1,3.1,0,0,1,1.414,2.7,2.6,2.6,0,0,1-.8,1.942A2.733,2.733,0,0,1,81.591,22.777Zm14.1,1.837a.909.909,0,0,0,.7-.3,1.017,1.017,0,0,0,.274-.718,4.2,4.2,0,0,0-.021-.486l-.021-.464V20.476a21.25,21.25,0,0,0-.211-2.723,4.553,4.553,0,0,0-.654-1.816,2.5,2.5,0,0,0-1.372-1.119,3.279,3.279,0,0,0-1.077-.19,2.841,2.841,0,0,0-1.668.57,4.923,4.923,0,0,0-.844.781,12.778,12.778,0,0,0-.8,1.056q-.063.106-.169.253l-.042-.169-.063-.866a3.412,3.412,0,0,0-.021-.443,1.076,1.076,0,0,0-.338-.581.87.87,0,0,0-.591-.222,1.009,1.009,0,0,0-.654.222.862.862,0,0,0-.317.6,3.32,3.32,0,0,0-.021.844l.063.654a9.031,9.031,0,0,1,.127,1.224q.211,2.364.3,3.547l.106,1.5a1.133,1.133,0,0,0,.317.686.877.877,0,0,0,.654.285.935.935,0,0,0,.686-.285,1.038,1.038,0,0,0,.306-.707,3.19,3.19,0,0,0,.021-.422q0-.148.011-.369t.053-.517q.253-1.478.422-2.2a6.117,6.117,0,0,1,1.414-2.808,2.768,2.768,0,0,1,.654-.549.937.937,0,0,1,.464-.148.849.849,0,0,1,.433.116.911.911,0,0,1,.327.327,1.883,1.883,0,0,1,.253.612,11.357,11.357,0,0,1,.19,1.414q.063,1.2.063,2.385.021.274.021.8,0,.422.042,1.309a1.26,1.26,0,0,0,.063.4.962.962,0,0,0,.929.676ZM-16.889,45.956a3.79,3.79,0,0,0,2.248-.623,4.5,4.5,0,0,0,1.425-1.763l.042-.127a.888.888,0,0,0,.021-.211.886.886,0,0,0-.3-.676,1.073,1.073,0,0,0-.76-.274,1.087,1.087,0,0,0-.908.486l-.422.654a1.217,1.217,0,0,1-.844.528,3.024,3.024,0,0,1-.591.063,2.769,2.769,0,0,1-1.752-.654,2.171,2.171,0,0,1-.633-.876,4.446,4.446,0,0,1-.253-1.172q.3,0,.887.042.718.042,1.056.042a7.994,7.994,0,0,0,1.246-.084,6.079,6.079,0,0,0,2.09-.654,2.142,2.142,0,0,0,1.182-1.963,2.339,2.339,0,0,0-.718-1.626,5.156,5.156,0,0,0-1.942-1.309,4.182,4.182,0,0,0-1.414-.274,4.479,4.479,0,0,0-.507.042,6.328,6.328,0,0,0-1.414.359,3.729,3.729,0,0,0-2.364,2.47,7.144,7.144,0,0,0-.3,2.09,7.826,7.826,0,0,0,.4,2.491,4.18,4.18,0,0,0,1.71,2.2A4.978,4.978,0,0,0-16.889,45.956Zm-.823-6.5q-1.056-.042-1.6-.084l-.274-.021a3.293,3.293,0,0,1,.338-.971.491.491,0,0,1,.084-.127.331.331,0,0,0,.063-.084,2.032,2.032,0,0,1,.823-.528,2.936,2.936,0,0,1,1.056-.211,1.4,1.4,0,0,1,.443.063,2.916,2.916,0,0,1,1.351.887.53.53,0,0,1,.127.211.468.468,0,0,1,.021.148.356.356,0,0,1-.211.3,3.111,3.111,0,0,1-1.267.359A7.342,7.342,0,0,1-17.713,39.454Zm11.569,5.974a2.515,2.515,0,0,0,.274-.359,22.352,22.352,0,0,0,1.9-3.5l.887-1.9.443-.844.633-1.224a2.132,2.132,0,0,0,.274-.887.891.891,0,0,0-.317-.686,1.125,1.125,0,0,0-.781-.285,1,1,0,0,0-.57.169,1.032,1.032,0,0,0-.38.464q-.38.8-.591,1.2-.486,1.013-1.5,3.04l-.95,2.005a.409.409,0,0,0-.053.074.491.491,0,0,1-.074.095l-.084-.148q-1.14-2.322-1.689-3.483L-10.3,35.844a.953.953,0,0,0-.929-.57,1.184,1.184,0,0,0-.633.169.876.876,0,0,0-.38.486,1.2,1.2,0,0,0-.063.38,1.137,1.137,0,0,0,.063.359l.317.7q.612,1.182.739,1.478.549,1.224,1.235,2.628t.9,1.847l.739,1.478A2.38,2.38,0,0,0-8,45.323a1.181,1.181,0,0,0,.971.486A1.215,1.215,0,0,0-6.144,45.428Zm10.175.528a3.79,3.79,0,0,0,2.248-.623A4.5,4.5,0,0,0,7.7,43.571l.042-.127a.947.947,0,0,0-.274-.887,1.073,1.073,0,0,0-.76-.274,1.087,1.087,0,0,0-.908.486l-.422.654a1.217,1.217,0,0,1-.844.528,3.024,3.024,0,0,1-.591.063,2.769,2.769,0,0,1-1.752-.654,2.171,2.171,0,0,1-.633-.876,4.446,4.446,0,0,1-.253-1.172q.3,0,.887.042.718.042,1.056.042A7.994,7.994,0,0,0,4.5,41.312a6.079,6.079,0,0,0,2.09-.654,2.142,2.142,0,0,0,1.182-1.963,2.339,2.339,0,0,0-.718-1.626A5.156,5.156,0,0,0,5.108,35.76a4.182,4.182,0,0,0-1.414-.274,4.479,4.479,0,0,0-.507.042,6.328,6.328,0,0,0-1.414.359,3.729,3.729,0,0,0-2.364,2.47,7.144,7.144,0,0,0-.3,2.09,7.826,7.826,0,0,0,.4,2.491,4.18,4.18,0,0,0,1.71,2.2A4.978,4.978,0,0,0,4.031,45.956Zm-.823-6.5q-1.056-.042-1.6-.084l-.274-.021a3.293,3.293,0,0,1,.338-.971.491.491,0,0,1,.084-.127.331.331,0,0,0,.063-.084,2.032,2.032,0,0,1,.823-.528,2.936,2.936,0,0,1,1.056-.211,1.4,1.4,0,0,1,.443.063,2.916,2.916,0,0,1,1.351.887.53.53,0,0,1,.127.211.468.468,0,0,1,.021.148.356.356,0,0,1-.211.3,3.111,3.111,0,0,1-1.267.359A7.342,7.342,0,0,1,3.208,39.454Zm8,6.312a1.156,1.156,0,0,0,.887-.338.853.853,0,0,0,.232-.781,3.441,3.441,0,0,1-.042-.443q-.169-2.744-.232-4.1l-.021-.317a.843.843,0,0,1,.169-.507.086.086,0,0,1,.021-.063,4.118,4.118,0,0,1,1.034-1.478.828.828,0,0,1,.612-.232,3.933,3.933,0,0,1,.633.106,2.54,2.54,0,0,0,.38.042,1.179,1.179,0,0,0,.76-.253.922.922,0,0,0,.359-.7,1.155,1.155,0,0,0-.042-.253,1.238,1.238,0,0,0-1.013-.76,4.779,4.779,0,0,0-1.077-.127,3.581,3.581,0,0,0-1.731.422l-.127.063-.084-.274A1.076,1.076,0,0,0,11.5,35.3a1.185,1.185,0,0,0-.654-.19,1.368,1.368,0,0,0-.718.19.924.924,0,0,0-.422.507,2.54,2.54,0,0,0-.042.38L9.71,39.2l.042,1.436.19,3.124.063,1.034a1.089,1.089,0,0,0,.253.549A1.185,1.185,0,0,0,11.209,45.766Zm16.741.169a4.379,4.379,0,0,0,1.33-.2,10.6,10.6,0,0,0,1.414-.581,3.612,3.612,0,0,0,1.626-1.647,5.8,5.8,0,0,0,.654-2.66,6.2,6.2,0,0,0-.211-1.626,5.207,5.207,0,0,0-1.6-2.554,3.765,3.765,0,0,0-1.393-.781,5.914,5.914,0,0,0-2.575-.19q-.486.084-.676.106l-.042-.084q-.042-1.119-.169-3.525a1.024,1.024,0,0,0-.348-.739,1.139,1.139,0,0,0-.792-.3,1.118,1.118,0,0,0-.718.253,1,1,0,0,0-.38.633,3.415,3.415,0,0,0-.042.559v.412l.232,3.927q.042,1.056.084,1.583l.042.844q.042.612.084,1.794.021,1.14.021,3.441a2.381,2.381,0,0,0,.042.528,1.016,1.016,0,0,0,.4.633,1.183,1.183,0,0,0,.718.232,1.149,1.149,0,0,0,.549-.148.591.591,0,0,1,.422-.063A7.338,7.338,0,0,0,27.949,45.935Zm.612-2.217a2.145,2.145,0,0,1-.718.106,3.8,3.8,0,0,1-1.077-.169v-.274l.021-.887q0-1.33-.169-4.032v-.106a.469.469,0,0,1,.074-.274.505.505,0,0,1,.264-.169,3.83,3.83,0,0,1,.76-.148,2.51,2.51,0,0,1,.38-.021,2.982,2.982,0,0,1,1.056.19,2.389,2.389,0,0,1,.528.338,2.833,2.833,0,0,1,.887,1.583,4.423,4.423,0,0,1,.127,1.034,3.744,3.744,0,0,1-.422,1.731,1.472,1.472,0,0,1-.739.7A8.562,8.562,0,0,1,28.562,43.718Zm9.014,2.132a4.627,4.627,0,0,0,.908.084,3.668,3.668,0,0,0,2.343-.8.241.241,0,0,1,.127-.084q.169.19.232.253a1.281,1.281,0,0,0,.971.464,1.07,1.07,0,0,0,.559-.158,1.107,1.107,0,0,0,.412-.433,1.041,1.041,0,0,0,.127-.507.808.808,0,0,0-.3-.676.834.834,0,0,1-.253-.612l-.021-.211a3.64,3.64,0,0,0-.021-.464l-.021-.464a1.913,1.913,0,0,1,.021-.338,13.244,13.244,0,0,0,.211-2.554q0-.992-.106-2.217a2.51,2.51,0,0,0-.253-.844,1.309,1.309,0,0,0-.422-.433,1.016,1.016,0,0,0-.549-.158,1.079,1.079,0,0,0-.728.264,1,1,0,0,0-.348.686,7.048,7.048,0,0,0-.042.908q0,.549.042,1.647l.021,2.554a1.817,1.817,0,0,1-.042.338,2.836,2.836,0,0,1-1.056,1.436,1.461,1.461,0,0,1-.676.274,2.473,2.473,0,0,1-1.182-.169,1.414,1.414,0,0,1-.971-1.077,5.538,5.538,0,0,1-.127-.7,9.469,9.469,0,0,1-.084-1.33q0-.528.042-1.541.021-.528.106-1.478a2.112,2.112,0,0,1,.032-.285,1.186,1.186,0,0,0,.011-.348.922.922,0,0,0-.317-.665,1.04,1.04,0,0,0-.718-.264,1.021,1.021,0,0,0-.665.232,1.072,1.072,0,0,0-.369.633q-.084.422-.127.823l-.042.76q-.021.38-.042.95t-.021,1.309a16.921,16.921,0,0,0,.169,2.005A3.549,3.549,0,0,0,35.465,44.8,3.871,3.871,0,0,0,37.576,45.851Zm8.592-11.083a1.219,1.219,0,0,0,.507-.127l.317-.148a1.156,1.156,0,0,0,.676-1.056,1.163,1.163,0,0,0-.369-.866,1.19,1.19,0,0,0-.855-.359A1.555,1.555,0,0,0,45.4,32.6a1.219,1.219,0,0,0-.454.961,1.207,1.207,0,0,0,1.224,1.2Zm.127,11.02a.956.956,0,0,0,.338.063,1.009,1.009,0,0,0,.475-.116,1.029,1.029,0,0,0,.369-.327.926.926,0,0,0,.19-.57.9.9,0,0,0-.232-.591.926.926,0,0,1-.232-.57V40.362H47.16v-.591q0-.929-.042-2.744a.741.741,0,0,0-.021-.211.93.93,0,0,0-.908-.8.944.944,0,0,0-.665.243.879.879,0,0,0-.285.623q-.021.3-.021.929v.95q0,.274.042.823l.021.8v2.934a5.547,5.547,0,0,0,.063.823,2.384,2.384,0,0,0,.4,1.161A1.377,1.377,0,0,0,46.294,45.787Zm4.665.021a1.023,1.023,0,0,0,.686-.243.906.906,0,0,0,.327-.6V44.8a2.323,2.323,0,0,0-.021-.359q0-.633-.042-1.984-.042-3.758-.084-5.594l-.084-4.665a4.461,4.461,0,0,1,.042-.486l.021-.169a.96.96,0,0,0-.306-.718,1.065,1.065,0,0,0-.771-.3,1.168,1.168,0,0,0-.581.148,1.035,1.035,0,0,0-.412.422,2.7,2.7,0,0,0-.148.486q-.021.338-.021,1.056,0,1.246.084,3.694,0,.591.042,1.773h.042V43.17q0,.422.042,1.267a2.053,2.053,0,0,0,.169.8,1.16,1.16,0,0,0,.443.422A1.187,1.187,0,0,0,50.96,45.808Zm7.452-.106a1.29,1.29,0,0,0,1.013-.528.789.789,0,0,0,.211-.549.745.745,0,0,0-.063-.3.89.89,0,0,0-.369-.486,1.055,1.055,0,0,0-.581-.169,1.79,1.79,0,0,0-.443.084.5.5,0,0,1-.211.063q-.084,0-.211-.148a.658.658,0,0,1-.169-.232,6.624,6.624,0,0,1-.232-.633,9.744,9.744,0,0,1-.253-1.984l-.042-4.18.021-.19.274-.021,1.077-.169a1.192,1.192,0,0,0,.654-.274.894.894,0,0,0,.127-1.277,1.049,1.049,0,0,0-.57-.327.64.64,0,0,0-.19-.021,1.816,1.816,0,0,0-.338.042l-.475.063q-.306.042-.538.063v-.211l.084-1.372.021-.549a.909.909,0,0,0-.3-.7.99.99,0,0,0-.7-.274,1.026,1.026,0,0,0-1.034.844q-.063.422-.106,1.351,0,.084-.063,1.1h-.507a2.781,2.781,0,0,1-.38.021,2.78,2.78,0,0,0-.38.021.958.958,0,0,0-.665.3.911.911,0,0,0-.264.654.828.828,0,0,0,.243.591.983.983,0,0,0,.623.3,3.125,3.125,0,0,0,.443.021h.866v2.027a27.834,27.834,0,0,0,.19,3.652,5.983,5.983,0,0,0,.486,1.794,3.146,3.146,0,0,0,.7.992,2.324,2.324,0,0,0,1.6.654A3.44,3.44,0,0,0,58.412,45.7Zm3.188.274a1.072,1.072,0,0,0,.771-.317,1.044,1.044,0,0,0,.327-.781,1.117,1.117,0,0,0-.306-.792,1.01,1.01,0,0,0-.771-.327,1.118,1.118,0,0,0-1.14,1.14,1.02,1.02,0,0,0,.327.76A1.1,1.1,0,0,0,61.6,45.977Z" transform="translate(969.324 10434.688) rotate(8)" fill="#208686"/><path d="M290.507,408.681a55.79,55.79,0,0,1-47.355,13.153c-6.828-1.336-13.642-4.158-18.185-9.427-5.938-6.887-6.761-18.018-1.092-25.129s17.593-8.485,24.137-2.171c4.135,3.99,5.676,10.1,5.279,15.836s-2.505,11.2-4.765,16.477c-5.979,13.972-18.133,31.517-46.794,32.343-7.481.216-16.16-2.731-19.052-9.634" transform="translate(642.495 10069.891) rotate(3)" fill="none" stroke="#208686" stroke-linecap="round" stroke-linejoin="round" stroke-width="3.375"/><path d="M288.544,404.6a49.689,49.689,0,0,0,6.529-1.3q-1.289,3.851-2.2,7.814.144-.51.289-1.021" transform="translate(642.495 10069.891) rotate(3)" fill="none" stroke="#208686" stroke-linecap="round" stroke-linejoin="round" stroke-width="3.375"/></g></svg>