<svg width="203" height="30" viewBox="0 0 203 30" fill="none" xmlns="http://www.w3.org/2000/svg">
<path fill-rule="evenodd" clip-rule="evenodd" d="M25.8125 15.6933L20.0924 5.95471C17.2806 1.16754 12.7195 1.16604 9.9068 5.95471L4.18674 15.6933C1.37494 20.4804 3.73034 24.3639 9.44965 24.3639H20.5496C26.2711 24.3639 28.6252 20.4819 25.8125 15.6933ZM13.4833 10.2463C14.3456 8.85518 15.707 8.87934 16.552 10.3182L20.0679 16.3054L20.1076 16.3749C20.9043 17.8063 20.1839 18.9553 18.4657 18.9553H11.5262L11.4439 18.9544C9.75955 18.9175 9.07832 17.7455 9.92397 16.3054L13.4399 10.3182L13.4833 10.2463Z" fill="#0D0D0D"/>
<path d="M41.6279 19.0002H43.8059V14.7322H47.0179C50.0979 14.7322 52.1219 13.1042 52.1219 10.2222C52.1219 7.47216 50.1639 5.80016 47.0619 5.80016H41.6279V19.0002ZM49.8779 10.2442C49.8779 12.0262 48.7119 12.8182 46.9739 12.8182H43.8059V7.73616H46.9519C48.7119 7.73616 49.8779 8.55016 49.8779 10.2442Z" fill="#0D0D0D"/>
<path d="M57.3252 5.80016V19.0002H59.5032V14.6442H62.6492L65.7952 19.0002H68.1932V18.6922L65.0252 14.4022V14.2922C66.7192 13.6542 67.8192 12.2682 67.8192 10.2222C67.8192 7.47216 65.8612 5.80016 62.7592 5.80016H57.3252ZM65.5532 10.2442C65.5532 11.9162 64.3872 12.7082 62.7812 12.7082H59.5032V7.73616H62.6492C64.4092 7.73616 65.5532 8.55016 65.5532 10.2442Z" fill="#0D0D0D"/>
<path d="M75.6731 5.80016H73.4951V19.0002H75.6731V5.80016Z" fill="#0D0D0D"/>
<path d="M81.0942 17.6582C81.0942 17.6582 82.7001 19.3082 86.0882 19.3082C89.3882 19.3082 90.9942 17.5482 90.9942 15.3042C90.9942 13.2582 89.7181 12.0922 86.5281 11.1902C84.3061 10.5302 83.6021 10.0902 83.6021 9.18816C83.6021 8.13216 84.5482 7.53816 86.0442 7.53816C88.2002 7.53816 89.4542 8.63816 89.4542 8.63816L90.6422 6.85616C90.6422 6.85616 89.3222 5.51416 86.0442 5.51416C82.9202 5.51416 81.2042 7.01016 81.2042 9.27616C81.2042 11.3442 82.6341 12.3342 85.5821 13.2142C87.9581 13.9402 88.5742 14.4462 88.5742 15.4582C88.5742 16.5362 87.8042 17.2842 86.0222 17.2842C83.8222 17.2842 82.2822 16.0082 82.2822 16.0082L81.0942 17.6582Z" fill="#0D0D0D"/>
<path d="M106.899 19.0002H109.055L109.033 5.80016H107.405L102.697 11.9602L98.0109 5.80016H96.3389V19.0002H98.5169V9.87016L102.301 14.7762H103.093L106.899 9.80416V19.0002Z" fill="#0D0D0D"/>
<path d="M121.33 5.80016H119.13L113.718 19.0002H116.028L117.084 16.2942H123.376L124.454 19.0002H126.742L121.33 5.80016ZM120.23 8.33016L122.65 14.4462H117.81L120.23 8.33016Z" fill="#0D0D0D"/>
<path d="M151.296 19.0002V17.0642H144.806V5.80016H142.628V19.0002H151.296Z" fill="#0D0D0D"/>
<path d="M162.527 5.80016H160.327L154.915 19.0002H157.225L158.281 16.2942H164.573L165.651 19.0002H167.939L162.527 5.80016ZM161.427 8.33016L163.847 14.4462H159.007L161.427 8.33016Z" fill="#0D0D0D"/>
<path d="M183.34 15.2382C183.34 13.7202 182.438 12.6642 181.096 12.2902V12.2022C182.218 11.7182 182.944 10.7062 182.944 9.38616C182.944 7.07616 181.316 5.80016 178.39 5.80016H172.604V19.0002H178.588C181.492 19.0002 183.34 17.7242 183.34 15.2382ZM178.808 13.2362C180.062 13.3022 181.052 14.0062 181.052 15.1282C181.052 16.3602 179.996 17.0642 178.632 17.0642H174.782V13.2362H178.808ZM180.656 9.60616C180.656 10.6842 179.754 11.4322 178.324 11.4322H174.782V7.73616H178.368C179.776 7.73616 180.656 8.35216 180.656 9.60616Z" fill="#0D0D0D"/>
<path d="M187.981 17.6582C187.981 17.6582 189.587 19.3082 192.975 19.3082C196.275 19.3082 197.881 17.5482 197.881 15.3042C197.881 13.2582 196.605 12.0922 193.415 11.1902C191.193 10.5302 190.489 10.0902 190.489 9.18816C190.489 8.13216 191.435 7.53816 192.931 7.53816C195.087 7.53816 196.341 8.63816 196.341 8.63816L197.529 6.85616C197.529 6.85616 196.209 5.51416 192.931 5.51416C189.807 5.51416 188.091 7.01016 188.091 9.27616C188.091 11.3442 189.521 12.3342 192.469 13.2142C194.845 13.9402 195.461 14.4462 195.461 15.4582C195.461 16.5362 194.691 17.2842 192.909 17.2842C190.709 17.2842 189.169 16.0082 189.169 16.0082L187.981 17.6582Z" fill="#0D0D0D"/>
</svg>
