<svg width="27" height="27" viewBox="0 0 27 27" fill="none" xmlns="http://www.w3.org/2000/svg">
<path fill-rule="evenodd" clip-rule="evenodd" d="M2.5 8C1.67157 8 1 8.67157 1 9.5C1 10.3284 1.67157 11 2.5 11H24.5C25.3284 11 26 10.3284 26 9.5C26 8.67157 25.3284 8 24.5 8H2.5ZM2.5 16C1.67157 16 1 16.6716 1 17.5C1 18.3284 1.67157 19 2.5 19H24.5C25.3284 19 26 18.3284 26 17.5C26 16.6716 25.3284 16 24.5 16H2.5Z" fill="#0D0D0D"/>
<path fill-rule="evenodd" clip-rule="evenodd" d="M2.5 8C1.67157 8 1 8.67157 1 9.5C1 10.3284 1.67157 11 2.5 11H24.5C25.3284 11 26 10.3284 26 9.5C26 8.67157 25.3284 8 24.5 8H2.5ZM2.5 16C1.67157 16 1 16.6716 1 17.5C1 18.3284 1.67157 19 2.5 19H24.5C25.3284 19 26 18.3284 26 17.5C26 16.6716 25.3284 16 24.5 16H2.5Z" fill="#0D0D0D"/>
<path fill-rule="evenodd" clip-rule="evenodd" d="M2.5 8C1.67157 8 1 8.67157 1 9.5C1 10.3284 1.67157 11 2.5 11H24.5C25.3284 11 26 10.3284 26 9.5C26 8.67157 25.3284 8 24.5 8H2.5ZM2.5 16C1.67157 16 1 16.6716 1 17.5C1 18.3284 1.67157 19 2.5 19H24.5C25.3284 19 26 18.3284 26 17.5C26 16.6716 25.3284 16 24.5 16H2.5Z" fill="#0D0D0D"/>
<path fill-rule="evenodd" clip-rule="evenodd" d="M2.5 8C1.67157 8 1 8.67157 1 9.5C1 10.3284 1.67157 11 2.5 11H24.5C25.3284 11 26 10.3284 26 9.5C26 8.67157 25.3284 8 24.5 8H2.5ZM2.5 16C1.67157 16 1 16.6716 1 17.5C1 18.3284 1.67157 19 2.5 19H24.5C25.3284 19 26 18.3284 26 17.5C26 16.6716 25.3284 16 24.5 16H2.5Z" fill="#0D0D0D"/>
<path fill-rule="evenodd" clip-rule="evenodd" d="M2.5 8C1.67157 8 1 8.67157 1 9.5C1 10.3284 1.67157 11 2.5 11H24.5C25.3284 11 26 10.3284 26 9.5C26 8.67157 25.3284 8 24.5 8H2.5ZM2.5 16C1.67157 16 1 16.6716 1 17.5C1 18.3284 1.67157 19 2.5 19H24.5C25.3284 19 26 18.3284 26 17.5C26 16.6716 25.3284 16 24.5 16H2.5Z" fill="#0D0D0D"/>
<path fill-rule="evenodd" clip-rule="evenodd" d="M2.5 8C1.67157 8 1 8.67157 1 9.5C1 10.3284 1.67157 11 2.5 11H24.5C25.3284 11 26 10.3284 26 9.5C26 8.67157 25.3284 8 24.5 8H2.5ZM2.5 16C1.67157 16 1 16.6716 1 17.5C1 18.3284 1.67157 19 2.5 19H24.5C25.3284 19 26 18.3284 26 17.5C26 16.6716 25.3284 16 24.5 16H2.5Z" fill="#0D0D0D"/>
<path fill-rule="evenodd" clip-rule="evenodd" d="M2.5 8C1.67157 8 1 8.67157 1 9.5C1 10.3284 1.67157 11 2.5 11H24.5C25.3284 11 26 10.3284 26 9.5C26 8.67157 25.3284 8 24.5 8H2.5ZM2.5 16C1.67157 16 1 16.6716 1 17.5C1 18.3284 1.67157 19 2.5 19H24.5C25.3284 19 26 18.3284 26 17.5C26 16.6716 25.3284 16 24.5 16H2.5Z" fill="#0D0D0D"/>
</svg>
