<svg width="162" height="162" viewBox="0 0 162 162" fill="none" xmlns="http://www.w3.org/2000/svg">
<g filter="url(#filter0_d)">
<rect x="17" y="11" width="128" height="128" rx="28.5" fill="white"/>
</g>
<path fill-rule="evenodd" clip-rule="evenodd" d="M112.519 80.705L95.9042 51.3917C87.6732 36.8695 74.3279 36.8693 66.0968 51.3917L49.4823 80.705C41.2513 95.2271 48.1103 107 64.8025 107H97.1985C113.885 107 120.75 95.2273 112.519 80.705ZM75.6297 62.3414C78.6579 57.2068 83.4903 57.2607 86.4808 62.4986L98.7178 83.9316L98.8068 84.0901C101.689 89.3093 99.1887 93.5143 93.1511 93.5143H68.8681L68.6863 93.513C62.7228 93.4283 60.311 89.1694 63.3015 83.9316L75.5385 62.4986L75.6297 62.3414Z" fill="black"/>
<defs>
<filter id="filter0_d" x="0" y="0" width="162" height="162" filterUnits="userSpaceOnUse" color-interpolation-filters="sRGB">
<feFlood flood-opacity="0" result="BackgroundImageFix"/>
<feColorMatrix in="SourceAlpha" type="matrix" values="0 0 0 0 0 0 0 0 0 0 0 0 0 0 0 0 0 0 127 0"/>
<feOffset dy="6"/>
<feGaussianBlur stdDeviation="8.5"/>
<feColorMatrix type="matrix" values="0 0 0 0 0 0 0 0 0 0 0 0 0 0 0 0 0 0 0.154638 0"/>
<feBlend mode="normal" in2="BackgroundImageFix" result="effect1_dropShadow"/>
<feBlend mode="normal" in="SourceGraphic" in2="effect1_dropShadow" result="shape"/>
</filter>
</defs>
</svg>
