<svg width="30" height="30" viewBox="0 0 30 30" fill="none" xmlns="http://www.w3.org/2000/svg">
<g clip-path="url(#clip0)">
<path fill-rule="evenodd" clip-rule="evenodd" d="M25.8125 15.6933L20.0924 5.95471C17.2806 1.16754 12.7195 1.16604 9.9068 5.95471L4.18674 15.6933C1.37494 20.4804 3.73034 24.3639 9.44965 24.3639H20.5496C26.2711 24.3639 28.6252 20.4819 25.8125 15.6933ZM13.4833 10.2463C14.3456 8.85518 15.707 8.87934 16.552 10.3182L20.0679 16.3054L20.1076 16.3749C20.9043 17.8063 20.1839 18.9553 18.4657 18.9553H11.5262L11.4439 18.9544C9.75955 18.9175 9.07832 17.7455 9.92397 16.3054L13.4399 10.3182L13.4833 10.2463Z" fill="#0D0D0D"/>
</g>
<defs>
<clipPath id="clip0">
<rect width="30" height="30" fill="white"/>
</clipPath>
</defs>
</svg>
